# AST/ASF file generated using VICON BodyLanguage
# -----------------------------------------------
:version 1.10
:name VICON
:units
  mass 1.0
  length 0.45
  angle deg
:documentation
   .ast/.asf automatically generated from VICON data using
   VICON BodyBuilder and BodyLanguage model FoxedUp or BRILLIANT.MOD
:root
   order TX TY TZ RX RY RZ
   axis XYZ
   position 0 0 0  
   orientation 0 0 0 
:bonedata
  begin
     id 1 
     name lhipjoint
     direction 0.624716 -0.669793 0.401383 
     length 2.38238 
     axis 0 0 0  XYZ
  end
  begin
     id 2 
     name lfemur
     direction 0.34202 -0.939693 0  
     length 6.4574  
     axis 0 0 20  XYZ
    dof rx ry rz
    limits (-160.0 20.0)
           (-70.0 70.0)
           (-60.0 70.0)
  end
  begin
     id 3 
     name ltibia
     direction 0.34202 -0.939693 0   
     length 7.68739   
     axis 0 0 20   XYZ
    dof rx
    limits (-10.0 170.0)
  end
  begin
     id 4 
     name lfoot
     direction 0.0681309 -0.187188 0.979959   
     length 2.46615   
     axis -90 7.62852e-016 20   XYZ
    dof rx rz
    limits (-45.0 90.0)
           (-70.0 20.0)
  end
  begin
     id 5 
     name ltoes
     direction 1.53566e-011 -4.21819e-011 1   
     length 1.2376   
     axis -90 7.62852e-016 20   XYZ
    dof rx
    limits (-90.0 20.0)
  end
  begin
     id 6 
     name rhipjoint
     direction -0.644473 -0.655875 0.393043   
     length 2.43293  
     axis 0 0 0  XYZ 
  end
  begin
     id 7 
     name rfemur
     direction -0.34202 -0.939693 0   
     length 6.7025   
     axis 0 0 -20   XYZ
    dof rx ry rz
    limits (-160.0 20.0)
           (-70.0 70.0)
           (-70.0 60.0)
  end
  begin
     id 8 
     name rtibia
     direction -0.34202 -0.939693 0   
     length 7.80547   
     axis 0 0 -20   XYZ
    dof rx
    limits (-10.0 170.0)
 end
 begin
     id 9 
     name rfoot
     direction -0.0756734 -0.207911 0.975216   
     length 2.40315  
     axis -90 -7.62852e-016 -20   XYZ
    dof rx rz
    limits (-45.0 90.0)
           (-20.0 70.0)
  end
  begin
     id 10 
     name rtoes
     direction -1.5353e-011 -4.21879e-011 1   
     length 1.20477   
     axis -90 -7.62852e-016 -20   XYZ
    dof rx
    limits (-90.0 20.0)
  end
  begin
     id 11 
     name lowerback
     direction 0.0160353 0.987463 -0.157037   
     length 2.18572   
     axis 0 0 0   XYZ
    dof rx ry rz
    limits (-20.0 45.0)
           (-30.0 30.0)
           (-30.0 30.0)
  end
  begin
     id 12 
     name upperback
     direction -0.00499661 0.999756 0.0215076   
     length 2.18016   
     axis 0 0 0   XYZ
    dof rx ry rz
    limits (-20.0 45.0)
           (-30.0 30.0)
           (-30.0 30.0)
  end
  begin
     id 13 
     name thorax
     direction -0.00921346 0.995333 0.0960619   
     length 2.24923   
     axis 0 0 0   XYZ
    dof rx ry rz
    limits (-20.0 45.0)
           (-30.0 30.0)
           (-30.0 30.0)
  end
  begin
     id 14 
     name lowerneck
     direction 0.0274184 0.991181 0.12965   
     length 1.70911   
     axis 0 0 0   XYZ
    dof rx ry rz
    limits (-20.0 45.0)
           (-30.0 30.0)
           (-30.0 30.0)
  end
  begin
     id 15 
     name upperneck
     direction 0.0015627 0.999959 -0.00893559   
     length 1.69312   
     axis 0 0 0   XYZ
    dof rx ry rz
    limits (-20.0 45.0)
           (-30.0 30.0)
           (-30.0 30.0)
  end
  begin
     id 16
     name head
     direction -0.00230242 0.999856 -0.0168327  
     length 1.80241  
     axis 0 0 0   XYZ
    dof rx ry rz
    limits (-20.0 45.0)
           (-30.0 30.0)
           (-30.0 30.0)
  end
  begin
     id 17 
     name lclavicle
     direction 0.955523 0.290741 -0.0494489  
     length 3.84275  
     axis 0 0 0   XYZ
    dof ry rz
    limits (-20.0 10.0)
           (0.0 20.0)
  end
  begin
     id 18 
     name lhumerus
     direction 1 -4.48967e-011 -3.18382e-028   
     length 5.17714   
     axis 180 -30 -90   XYZ
    dof rx ry rz
    limits (-60.0 90.0)
           (-90.0 90.0)
           (-90.0 90.0)
  end
  begin
     id 19
     name lradius
     direction 1 -4.48968e-011 -2.22911e-027   
     length 3.43679   
     axis 180 -30 -90   XYZ
    dof rx
    limits (-10.0 170.0)
  end
  begin
     id 20
     name lwrist
     direction 1 -4.48951e-011 -6.32245e-027   
     length 1.7184   
     axis 3.57107e-015 90 90   XYZ
    dof ry
    limits (-180.0 0.0)
 end
  begin
     id 21 
     name lhand
     direction 1 -4.48924e-011 -1.26431e-026   
     length 0.573117   
     axis 8.06912e-015 90 90   XYZ
    dof rx rz
    limits (-90.0 90.0)
           (-45.0 45.0)
  end
  begin
     id 22 
     name lfingers
     direction 1 -4.49001e-011 -2.52965e-026   
     length 0.462062   
     axis 1.61381e-014 90 90   XYZ
    dof rx
    limits (0.0 90.0)
  end
  begin
     id 23
     name lthumb
     direction 0.707107 -6.35008e-011 0.707107   
     length 0.663431   
     axis -90 45 -1.62303e-014   XYZ
    dof rx rz
    limits (-45.0 45.0)
           (-45.0 45.0)
  end
  begin
     id 24 
     name rclavicle
     direction -0.963917 0.256881 -0.0698287   
     length 3.73057  
     axis 0 0 0   XYZ 
    dof ry rz
    limits (-10.0 20.0)
           (-20.0 0.0)
  end
  begin
     id 25 
     name rhumerus
     direction -1 -4.48962e-011 -2.73982e-027  
     length 5.23908   
     axis 180 30 90   XYZ
    dof rx ry rz
    limits (-90.0 60.0)
           (-90.0 90.0)
           (-90.0 90.0)
  end
  begin
     id 26 
     name rradius
     direction -1 -4.48968e-011 -4.33218e-027   
     length 3.46485   
     axis 180 30 90   XYZ
    dof rx
    limits (-10.0 170.0)
  end
  begin
     id 27 
     name rwrist
     direction -1 -4.48989e-011 -6.32372e-027   
     length 1.73243   
     axis 3.57107e-015 -90 -90   XYZ
    dof ry
    limits (-180.0 0.0)
  end
  begin
     id 28
     name rhand
     direction -1 -4.48948e-011 -1.26448e-026   
     length 0.608752   
     axis 8.06912e-015 -90 -90   XYZ
    dof rx rz
    limits (-90.0 90.0)
           (-45.0 45.0)
  end
  begin
     id 29
     name rfingers
     direction -1 -4.48962e-011 -2.52913e-026   
     length 0.490792   
     axis 1.61381e-014 -90 -90   XYZ
    dof rx
    limits (0.0 90.0)
  end
  begin
     id 30
     name rthumb
     direction -0.707107 -6.34878e-011 0.707107   
     length 0.704682   
     axis -90 -45 1.62303e-014   XYZ
    dof rx rz
    limits (-45.0 45.0)
           (-45.0 45.0)
  end
:hierarchy
  begin
    root lhipjoint rhipjoint lowerback
    lhipjoint lfemur
    lfemur ltibia
    ltibia lfoot
    lfoot ltoes
    rhipjoint rfemur
    rfemur rtibia
    rtibia rfoot
    rfoot rtoes
    lowerback upperback
    upperback thorax
    thorax lowerneck lclavicle rclavicle
    lowerneck upperneck
    upperneck head
    lclavicle lhumerus
    lhumerus lradius
    lradius lwrist
    lwrist lhand lthumb
    lhand lfingers
    rclavicle rhumerus
    rhumerus rradius
    rradius rwrist
    rwrist rhand rthumb
    rhand rfingers
  end

#!OML:ASF G:\JayActor3\Patient Classification 1\Patient 1\Session 6\male.ASF
:FULLY-SPECIFIED
:DEGREES
192
root 49.2772 15.7806 -25.8626 4.89521 -61.8283 -6.02117
lowerback 5.08746 -1.6186 0.730057
upperback -4.42509 -2.06878 1.0438
thorax -7.47301 -1.03655 0.924021
lowerneck -6.74367 1.08539 3.22402
upperneck 0.0862585 1.22922 -2.62277
head 1.21036 0.563284 -1.33256
rclavicle 4.72611e-014 -6.36111e-015
rhumerus -56.5072 31.3932 -101.013
rradius 47.4028
rwrist -8.27975
rhand -19.6598 -7.11811
rfingers 7.12502
rthumb 6.66822 -36.9931
lclavicle 4.72611e-014 -6.36111e-015
lhumerus -51.9261 -24.7565 96.3649
lradius 42.7804
lwrist 26.588
lhand -11.0742 8.12311
lfingers 7.12502
lthumb 14.949 37.5636
rfemur -10.0852 1.48549 20.3009
rtibia 34.4408
rfoot -23.3345 -10.3123
rtoes -0.805344
lfemur -1.08956 8.24512 -14.6844
ltibia 21.0917
lfoot -18.8807 10.6776
ltoes -0.209808
193
root 49.2732 15.78 -25.8562 4.94177 -61.8481 -6.07328
lowerback 5.06893 -1.62175 0.754606
upperback -4.47333 -2.0725 1.02994
thorax -7.51533 -1.04033 0.896865
lowerneck -6.74324 1.07425 3.25969
upperneck 0.136814 1.21297 -2.63394
head 1.22651 0.55537 -1.3431
rclavicle 1.12127e-014 9.54166e-015
rhumerus -57.1268 31.9535 -101.428
rradius 48.063
rwrist -8.47492
rhand -19.6479 -7.10942
rfingers 7.12502
rthumb 6.67977 -36.9841
lclavicle 1.12127e-014 9.54166e-015
lhumerus -52.6139 -25.4633 96.8203
lradius 43.6607
lwrist 26.7396
lhand -11.0736 8.33498
lfingers 7.12502
lthumb 14.9496 37.7754
rfemur -10.0662 1.46979 20.3081
rtibia 34.4427
rfoot -23.3259 -10.2511
rtoes -0.760579
lfemur -1.08078 8.30313 -14.657
ltibia 21.1332
lfoot -18.912 10.6134
ltoes -0.189457
194
root 49.2696 15.7793 -25.8499 4.98731 -61.8648 -6.12349
lowerback 5.05574 -1.61777 0.783071
upperback -4.5251 -2.06684 1.00721
thorax -7.56513 -1.03998 0.857425
lowerneck -6.73007 1.05783 3.31491
upperneck 0.183022 1.18864 -2.65033
head 1.23909 0.543474 -1.35899
rclavicle -3.55514e-014 8.44835e-016
rhumerus -57.6983 32.4482 -101.797
rradius 48.6832
rwrist -8.64941
rhand -19.5645 -7.08614
rfingers 7.12502
rthumb 6.76027 -36.9582
lclavicle -3.55514e-014 8.44835e-016
lhumerus -53.3273 -26.2004 97.294
lradius 44.5426
lwrist 26.9417
lhand -11.1014 8.4464
lfingers 7.12502
lthumb 14.9228 37.8888
rfemur -10.0478 1.45805 20.3157
rtibia 34.4444
rfoot -23.3212 -10.1966
rtoes -0.708698
lfemur -1.07594 8.37364 -14.6277
ltibia 21.177
lfoot -18.9388 10.5339
ltoes -0.172437
195
root 49.2662 15.7784 -25.8436 5.02723 -61.876 -6.16645
lowerback 5.04547 -1.61115 0.809229
upperback -4.5743 -2.05799 0.98135
thorax -7.61393 -1.03805 0.815641
lowerneck -6.73895 1.0413 3.35902
upperneck 0.250374 1.16436 -2.65134
head 1.26195 0.531826 -1.36812
rclavicle -4.61305e-014 -3.23025e-015
rhumerus -58.2009 32.891 -102.096
rradius 49.2645
rwrist -8.79273
rhand -19.4095 -7.0535
rfingers 7.12502
rthumb 6.90989 -36.9207
lclavicle -4.61305e-014 -3.23025e-015
lhumerus -54.0446 -26.9509 97.7766
lradius 45.4183
lwrist 27.1967
lhand -11.1504 8.46298
lfingers 7.12502
lthumb 14.8756 37.9089
rfemur -10.0295 1.43764 20.3185
rtibia 34.4462
rfoot -23.318 -10.1432
rtoes -0.673825
lfemur -1.0754 8.45813 -14.5998
ltibia 21.2225
lfoot -18.9579 10.4421
ltoes -0.174415
196
root 49.2629 15.7774 -25.8373 5.07384 -61.8812 -6.21557
lowerback 5.03222 -1.60734 0.829331
upperback -4.61395 -2.05292 0.962897
thorax -7.65023 -1.03744 0.785077
lowerneck -6.77335 1.03157 3.37721
upperneck 0.319157 1.14974 -2.63132
head 1.28949 0.525126 -1.36571
rclavicle -4.5385e-014 5.46658e-015
rhumerus -58.6118 33.3078 -102.31
rradius 49.8033
rwrist -8.89895
rhand -19.1908 -7.0053
rfingers 7.12502
rthumb 7.12093 -36.8655
lclavicle -4.5385e-014 5.46658e-015
lhumerus -54.7369 -27.6876 98.2514
lradius 46.2753
lwrist 27.4936
lhand -11.2106 8.3747
lfingers 7.12502
lthumb 14.8176 37.8249
rfemur -10.0113 1.4187 20.3253
rtibia 34.4469
rfoot -23.3198 -10.099
rtoes -0.647721
lfemur -1.08041 8.55318 -14.5664
ltibia 21.2696
lfoot -18.9691 10.3406
ltoes -0.200046
197
root 49.2597 15.7762 -25.831 5.11648 -61.8798 -6.26135
lowerback 5.02164 -1.61036 0.839034
upperback -4.64599 -2.05741 0.950855
thorax -7.67928 -1.04073 0.768042
lowerneck -6.82492 1.03041 3.36979
upperneck 0.383182 1.1472 -2.58773
head 1.31832 0.524676 -1.35086
rclavicle -2.7159e-014 -9.93923e-016
rhumerus -58.9281 33.6896 -102.427
rradius 50.307
rwrist -8.95672
rhand -18.8696 -6.94628
rfingers 7.12502
rthumb 7.43104 -36.7958
lclavicle -2.7159e-014 -9.93923e-016
lhumerus -55.3848 -28.3784 98.6884
lradius 47.1043
lwrist 27.7831
lhand -11.2592 8.22538
lfingers 7.12502
lthumb 14.7708 37.6791
rfemur -9.99025 1.39401 20.3299
rtibia 34.4466
rfoot -23.3232 -10.0589
rtoes -0.640173
lfemur -1.08663 8.65669 -14.5327
ltibia 21.3166
lfoot -18.9737 10.2306
ltoes -0.240759
198
root 49.2565 15.7749 -25.8248 5.15534 -61.871 -6.30366
lowerback 5.02083 -1.62299 0.837249
upperback -4.67495 -2.07502 0.947556
thorax -7.70992 -1.04953 0.768378
lowerneck -6.88999 1.03693 3.33623
upperneck 0.443517 1.15587 -2.52404
head 1.34816 0.530011 -1.32462
rclavicle -3.05631e-014 5.1684e-015
rhumerus -59.15 34.037 -102.445
rradius 50.7755
rwrist -8.959
rhand -18.4804 -6.87208
rfingers 7.12502
rthumb 7.80666 -36.708
lclavicle -3.05631e-014 5.1684e-015
lhumerus -55.9813 -28.9923 99.0645
lradius 47.9154
lwrist 28.0122
lhand -11.2613 8.12762
lfingers 7.12502
lthumb 14.7687 37.5814
rfemur -9.96632 1.37124 20.3346
rtibia 34.4444
rfoot -23.33 -10.0314
rtoes -0.645146
lfemur -1.0935 8.75276 -14.5002
ltibia 21.3621
lfoot -18.9765 10.1217
ltoes -0.28827
199
root 49.2532 15.7738 -25.8188 5.18758 -61.8558 -6.33941
lowerback 5.03001 -1.64619 0.822024
upperback -4.70271 -2.10726 0.952267
thorax -7.74426 -1.06447 0.786663
lowerneck -6.94769 1.04986 3.28877
upperneck 0.479584 1.17374 -2.45207
head 1.36893 0.539977 -1.29288
rclavicle 3.28492e-014 -8.54774e-015
rhumerus -59.2789 34.3351 -102.361
rradius 51.2101
rwrist -8.89808
rhand -18.0313 -6.78675
rfingers 7.12502
rthumb 8.24011 -36.6061
lclavicle 3.28492e-014 -8.54774e-015
lhumerus -56.5305 -29.5212 99.3709
lradius 48.718
lwrist 28.1807
lhand -11.1852 8.07441
lfingers 7.12502
lthumb 14.8421 37.5228
rfemur -9.93983 1.35809 20.3393
rtibia 34.4406
rfoot -23.3429 -10.0211
rtoes -0.662512
lfemur -1.09934 8.83928 -14.4706
ltibia 21.4039
lfoot -18.9796 10.0149
ltoes -0.329183
200
root 49.2498 15.7728 -25.8131 5.20995 -61.8368 -6.36545
lowerback 5.05323 -1.67723 0.793557
upperback -4.73373 -2.1506 0.962582
thorax -7.78951 -1.08388 0.82015
lowerneck -6.98961 1.06499 3.24106
upperneck 0.493532 1.19481 -2.38522
head 1.37998 0.551426 -1.26252
rclavicle -8.19987e-015 4.07509e-015
rhumerus -59.3193 34.5683 -102.178
rradius 51.606
rwrist -8.78334
rhand -17.5768 -6.68827
rfingers 7.12502
rthumb 8.67876 -36.4899
lclavicle -8.19987e-015 4.07509e-015
lhumerus -57.0314 -29.9568 99.601
lradius 49.5053
lwrist 28.2932
lhand -11.0412 8.06908
lfingers 7.12502
lthumb 14.9808 37.5072
rfemur -9.91073 1.36173 20.3435
rtibia 34.4352
rfoot -23.3639 -10.0325
rtoes -0.686488
lfemur -1.10176 8.91186 -14.4462
ltibia 21.4414
lfoot -18.9876 9.91063
ltoes -0.335661
